<svg xmlns="http://www.w3.org/2000/svg" viewBox="0 0 460 220" role="img" aria-label="BST delete operation">
  <rect width="460" height="220" rx="8" fill="#f8fafc"/>
  <text x="20" y="18" font-size="12" font-family="Arial, sans-serif" fill="#94a3b8" font-weight="600">BEFORE</text>
  <text x="110" y="18" font-size="13" font-family="Arial, sans-serif" fill="#dc2626" font-weight="600">delete(70)</text>
  <line x1="90" y1="58" x2="52" y2="90" stroke="#cbd5e1" stroke-width="1.5"/>
  <line x1="110" y1="58" x2="148" y2="90" stroke="#cbd5e1" stroke-width="1.5"/>
  <line x1="140" y1="122" x2="112" y2="152" stroke="#cbd5e1" stroke-width="1.5"/>
  <line x1="162" y1="122" x2="188" y2="152" stroke="#cbd5e1" stroke-width="1.5"/>
  <circle cx="100" cy="46" r="18" fill="#fff" stroke="#cbd5e1" stroke-width="1.5"/>
  <text x="100" y="52" font-size="13" font-family="Arial, sans-serif" fill="#1e293b" text-anchor="middle">50</text>
  <circle cx="42" cy="102" r="18" fill="#fff" stroke="#cbd5e1" stroke-width="1.5"/>
  <text x="42" y="108" font-size="13" font-family="Arial, sans-serif" fill="#1e293b" text-anchor="middle">30</text>
  <circle cx="158" cy="102" r="18" fill="#fee2e2" stroke="#ef4444" stroke-width="2"/>
  <text x="158" y="108" font-size="13" font-family="Arial, sans-serif" fill="#dc2626" text-anchor="middle" font-weight="600">70</text>
  <circle cx="108" cy="166" r="18" fill="#fff" stroke="#cbd5e1" stroke-width="1.5"/>
  <text x="108" y="172" font-size="13" font-family="Arial, sans-serif" fill="#1e293b" text-anchor="middle">60</text>
  <circle cx="196" cy="166" r="18" fill="#fff" stroke="#cbd5e1" stroke-width="1.5"/>
  <text x="196" y="172" font-size="13" font-family="Arial, sans-serif" fill="#1e293b" text-anchor="middle">80</text>
  <line x1="226" y1="106" x2="254" y2="106" stroke="#64748b" stroke-width="1.5" marker-end="url(#a)"/>
  <text x="268" y="18" font-size="12" font-family="Arial, sans-serif" fill="#94a3b8" font-weight="600">AFTER</text>
  <text x="268" y="34" font-size="11" font-family="Arial, sans-serif" fill="#64748b">Replace with inorder successor (80)</text>
  <line x1="350" y1="58" x2="312" y2="90" stroke="#cbd5e1" stroke-width="1.5"/>
  <line x1="370" y1="58" x2="408" y2="90" stroke="#cbd5e1" stroke-width="1.5"/>
  <line x1="398" y1="122" x2="370" y2="152" stroke="#cbd5e1" stroke-width="1.5"/>
  <circle cx="360" cy="46" r="18" fill="#fff" stroke="#cbd5e1" stroke-width="1.5"/>
  <text x="360" y="52" font-size="13" font-family="Arial, sans-serif" fill="#1e293b" text-anchor="middle">50</text>
  <circle cx="302" cy="102" r="18" fill="#fff" stroke="#cbd5e1" stroke-width="1.5"/>
  <text x="302" y="108" font-size="13" font-family="Arial, sans-serif" fill="#1e293b" text-anchor="middle">30</text>
  <circle cx="418" cy="102" r="18" fill="#dcfce7" stroke="#16a34a" stroke-width="2"/>
  <text x="418" y="108" font-size="13" font-family="Arial, sans-serif" fill="#15803d" text-anchor="middle" font-weight="600">80</text>
  <circle cx="366" cy="166" r="18" fill="#fff" stroke="#cbd5e1" stroke-width="1.5"/>
  <text x="366" y="172" font-size="13" font-family="Arial, sans-serif" fill="#1e293b" text-anchor="middle">60</text>
  <text x="268" y="210" font-size="11" font-family="Arial, sans-serif" fill="#94a3b8">O(log n) average</text>
  <defs>
    <marker id="a" markerWidth="10" markerHeight="7" refX="10" refY="3.5" orient="auto"><path d="M0,0 L10,3.5 L0,7 z" fill="#64748b"/></marker>
  </defs>
</svg>
