<svg xmlns="http://www.w3.org/2000/svg" viewBox="0 0 460 190" role="img" aria-label="Queue dequeue operation">
  <rect width="460" height="190" rx="8" fill="#f8fafc"/>
  <text x="24" y="18" font-size="12" font-family="Arial, sans-serif" fill="#94a3b8" font-weight="600">BEFORE</text>
  <text x="350" y="60" font-size="13" font-family="Arial, sans-serif" fill="#dc2626" font-weight="600">dequeue()</text>
  <text x="350" y="76" font-size="11" font-family="Arial, sans-serif" fill="#dc2626">returns A</text>
  <text x="38" y="36" font-size="11" font-family="Arial, sans-serif" fill="#ef4444" font-weight="600">front</text>
  <line x1="56" y1="40" x2="56" y2="56" stroke="#ef4444" stroke-width="1.5" marker-end="url(#ar)"/>
  <text x="208" y="36" font-size="11" font-family="Arial, sans-serif" fill="#64748b">rear</text>
  <line x1="224" y1="40" x2="224" y2="56" stroke="#64748b" stroke-width="1.5" marker-end="url(#a)"/>
  <rect x="24" y="58" width="64" height="36" rx="6" fill="#fee2e2" stroke="#ef4444" stroke-width="2"/>
  <text x="56" y="81" font-size="16" font-family="Arial, sans-serif" fill="#dc2626" text-anchor="middle" font-weight="600">A</text>
  <line x1="92" y1="76" x2="114" y2="76" stroke="#64748b" stroke-width="1.5" marker-end="url(#a)"/>
  <rect x="118" y="58" width="64" height="36" rx="6" fill="#fff" stroke="#cbd5e1" stroke-width="1.5"/>
  <text x="150" y="81" font-size="16" font-family="Arial, sans-serif" fill="#1e293b" text-anchor="middle">B</text>
  <line x1="186" y1="76" x2="208" y2="76" stroke="#64748b" stroke-width="1.5" marker-end="url(#a)"/>
  <rect x="212" y="58" width="64" height="36" rx="6" fill="#fff" stroke="#cbd5e1" stroke-width="1.5"/>
  <text x="244" y="81" font-size="16" font-family="Arial, sans-serif" fill="#1e293b" text-anchor="middle">C</text>
  <text x="290" y="81" font-size="12" font-family="Arial, sans-serif" fill="#94a3b8">None</text>
  <line x1="160" y1="102" x2="160" y2="116" stroke="#64748b" stroke-width="1.5" marker-end="url(#a)"/>
  <text x="24" y="132" font-size="12" font-family="Arial, sans-serif" fill="#94a3b8" font-weight="600">AFTER</text>
  <text x="38" y="148" font-size="11" font-family="Arial, sans-serif" fill="#16a34a" font-weight="600">front</text>
  <line x1="56" y1="152" x2="56" y2="166" stroke="#16a34a" stroke-width="1.5" marker-end="url(#ag)"/>
  <text x="132" y="148" font-size="11" font-family="Arial, sans-serif" fill="#64748b">rear</text>
  <line x1="150" y1="152" x2="150" y2="166" stroke="#64748b" stroke-width="1.5" marker-end="url(#a)"/>
  <rect x="24" y="168" width="64" height="36" rx="6" fill="#fff" stroke="#cbd5e1" stroke-width="1.5"/>
  <text x="56" y="191" font-size="16" font-family="Arial, sans-serif" fill="#1e293b" text-anchor="middle">B</text>
  <line x1="92" y1="186" x2="114" y2="186" stroke="#64748b" stroke-width="1.5" marker-end="url(#a)"/>
  <rect x="118" y="168" width="64" height="36" rx="6" fill="#fff" stroke="#cbd5e1" stroke-width="1.5"/>
  <text x="150" y="191" font-size="16" font-family="Arial, sans-serif" fill="#1e293b" text-anchor="middle">C</text>
  <text x="196" y="191" font-size="12" font-family="Arial, sans-serif" fill="#94a3b8">None</text>
  <defs>
    <marker id="a" markerWidth="10" markerHeight="7" refX="10" refY="3.5" orient="auto"><path d="M0,0 L10,3.5 L0,7 z" fill="#64748b"/></marker>
    <marker id="ag" markerWidth="10" markerHeight="7" refX="10" refY="3.5" orient="auto"><path d="M0,0 L10,3.5 L0,7 z" fill="#16a34a"/></marker>
    <marker id="ar" markerWidth="10" markerHeight="7" refX="10" refY="3.5" orient="auto"><path d="M0,0 L10,3.5 L0,7 z" fill="#ef4444"/></marker>
  </defs>
</svg>
