<svg xmlns="http://www.w3.org/2000/svg" viewBox="0 0 340 220" role="img" aria-label="Stack pop operation">
  <rect width="340" height="220" rx="8" fill="#f8fafc"/>
  <text x="24" y="18" font-size="12" font-family="Arial, sans-serif" fill="#94a3b8" font-weight="600">BEFORE</text>
  <rect x="40" y="30" width="100" height="150" rx="6" fill="#fff" stroke="#cbd5e1" stroke-width="1.5"/>
  <rect x="52" y="140" width="76" height="30" rx="4" fill="#f1f5f9" stroke="#cbd5e1" stroke-width="1"/>
  <text x="90" y="160" font-size="16" font-family="Arial, sans-serif" fill="#1e293b" text-anchor="middle">10</text>
  <rect x="52" y="106" width="76" height="30" rx="4" fill="#f1f5f9" stroke="#cbd5e1" stroke-width="1"/>
  <text x="90" y="126" font-size="16" font-family="Arial, sans-serif" fill="#1e293b" text-anchor="middle">20</text>
  <rect x="52" y="72" width="76" height="30" rx="4" fill="#f1f5f9" stroke="#cbd5e1" stroke-width="1"/>
  <text x="90" y="92" font-size="16" font-family="Arial, sans-serif" fill="#1e293b" text-anchor="middle">30</text>
  <rect x="52" y="38" width="76" height="30" rx="4" fill="#fee2e2" stroke="#ef4444" stroke-width="2"/>
  <text x="90" y="58" font-size="16" font-family="Arial, sans-serif" fill="#dc2626" text-anchor="middle" font-weight="600">40</text>
  <line x1="142" y1="53" x2="162" y2="53" stroke="#ef4444" stroke-width="1.5" marker-end="url(#ar)"/>
  <text x="176" y="57" font-size="11" font-family="Arial, sans-serif" fill="#ef4444" font-weight="600">top</text>
  <text x="170" y="92" font-size="13" font-family="Arial, sans-serif" fill="#dc2626" font-weight="600">pop()</text>
  <text x="170" y="108" font-size="11" font-family="Arial, sans-serif" fill="#dc2626">returns 40</text>
  <text x="200" y="18" font-size="12" font-family="Arial, sans-serif" fill="#94a3b8" font-weight="600">AFTER</text>
  <rect x="216" y="30" width="100" height="150" rx="6" fill="#fff" stroke="#cbd5e1" stroke-width="1.5"/>
  <rect x="228" y="140" width="76" height="30" rx="4" fill="#f1f5f9" stroke="#cbd5e1" stroke-width="1"/>
  <text x="266" y="160" font-size="16" font-family="Arial, sans-serif" fill="#1e293b" text-anchor="middle">10</text>
  <rect x="228" y="106" width="76" height="30" rx="4" fill="#f1f5f9" stroke="#cbd5e1" stroke-width="1"/>
  <text x="266" y="126" font-size="16" font-family="Arial, sans-serif" fill="#1e293b" text-anchor="middle">20</text>
  <rect x="228" y="72" width="76" height="30" rx="4" fill="#f1f5f9" stroke="#cbd5e1" stroke-width="1"/>
  <text x="266" y="92" font-size="16" font-family="Arial, sans-serif" fill="#1e293b" text-anchor="middle">30</text>
  <line x1="318" y1="87" x2="330" y2="87" stroke="#64748b" stroke-width="1.5" marker-end="url(#a)"/>
  <text x="330" y="80" font-size="11" font-family="Arial, sans-serif" fill="#64748b">top</text>
  <text x="170" y="208" font-size="11" font-family="Arial, sans-serif" fill="#94a3b8" text-anchor="middle">O(1)</text>
  <defs>
    <marker id="a" markerWidth="10" markerHeight="7" refX="10" refY="3.5" orient="auto"><path d="M0,0 L10,3.5 L0,7 z" fill="#64748b"/></marker>
    <marker id="ar" markerWidth="10" markerHeight="7" refX="10" refY="3.5" orient="auto"><path d="M0,0 L10,3.5 L0,7 z" fill="#ef4444"/></marker>
  </defs>
</svg>
